<svg xmlns="http://www.w3.org/2000/svg" width="32" height="28" viewBox="0 0 1103 976" version="1.1"><path d="M 577.566 3.539 C 575.223 7.116, 538.442 67.981, 521.995 95.500 C 514.435 108.150, 503.634 126.150, 497.993 135.500 C 492.352 144.850, 485.625 156.100, 483.044 160.500 C 475.871 172.731, 390.259 315.677, 386.022 322.500 C 382.225 328.614, 373.906 342.536, 321.790 430 C 294.011 476.620, 275.089 508.424, 222.728 596.500 C 210.631 616.850, 199.717 635.075, 198.475 637 C 197.234 638.925, 185.810 658.158, 173.088 679.740 C 160.366 701.322, 146.891 724.047, 143.145 730.240 C 139.398 736.433, 128.311 755, 118.506 771.500 C 108.702 788, 95.190 810.725, 88.481 822 C 81.772 833.275, 70.299 852.625, 62.987 865 C 55.675 877.375, 39.425 904.669, 26.876 925.653 C 14.328 946.637, 3.268 965.467, 2.300 967.498 C -0.944 974.300, -4.334 974, 75.898 974 L 147.413 974 174.957 956.796 C 220.695 928.227, 256.070 906.059, 264 900.998 C 273.539 894.909, 319.637 865.926, 358.733 841.437 C 375.361 831.022, 394.711 818.878, 401.733 814.451 C 408.755 810.024, 431.375 795.803, 452 782.847 C 472.625 769.892, 505.646 749.075, 525.380 736.589 C 545.114 724.102, 561.877 714.122, 562.630 714.412 C 563.384 714.701, 564 715.578, 564 716.360 C 564 717.143, 565.839 723.345, 568.087 730.142 C 584.119 778.622, 610.436 823.556, 644.607 860.795 C 696.129 916.942, 759.252 953.495, 831.500 969.021 C 854.250 973.910, 858.244 974.258, 897.122 974.735 C 931.828 975.161, 935.935 975.028, 950.122 973.026 C 1004.651 965.327, 1051.269 945.821, 1094.250 912.719 L 1102 906.750 1101.992 901.125 C 1101.985 895.827, 1101.399 894.483, 1091.904 878 C 1086.359 868.375, 1078.755 855.100, 1075.004 848.500 C 1045.972 797.410, 1034.141 777.460, 1032.710 777.184 C 1031.810 777.010, 1027.345 779.905, 1022.787 783.617 C 1005.405 797.773, 981.716 811.063, 962.507 817.435 C 929.028 828.541, 882.823 829.206, 847 819.097 C 834.439 815.553, 815.977 808.256, 807 803.288 C 753.465 773.659, 718.337 725.384, 707.830 667 C 706.215 658.024, 705.752 651.220, 705.723 636 C 705.690 618.836, 706.009 614.823, 708.387 602.500 C 714.952 568.473, 731.545 534.555, 754.023 509.213 C 778.072 482.099, 814.611 459.850, 850.333 450.569 C 873.914 444.442, 907.950 443.364, 931.500 447.997 C 950.802 451.795, 975.633 461.097, 993.119 471.080 C 1007.163 479.097, 1012.039 477.869, 1017.963 464.819 C 1022.445 454.946, 1026.907 445.448, 1039.017 420 C 1044.645 408.175, 1051.622 393.325, 1054.521 387 C 1057.421 380.675, 1061.864 371.081, 1064.396 365.679 C 1071.712 350.073, 1071.292 348.968, 1053.500 337.021 C 1033.432 323.544, 1013 313.403, 990.201 305.602 C 948.911 291.473, 908.292 287.382, 860.500 292.538 C 846.514 294.046, 843.842 294.499, 825.500 298.462 C 780.606 308.162, 727.970 332.369, 693 359.398 C 673.400 374.548, 650.360 396.923, 636.778 414 C 614.618 441.862, 595.280 475.633, 580.602 512.102 L 574.725 526.704 557.113 537.730 C 547.426 543.794, 524.200 558.445, 505.500 570.287 C 486.800 582.128, 458.774 599.846, 443.221 609.659 C 427.668 619.471, 403.423 634.813, 389.344 643.750 C 375.265 652.687, 363.353 660, 362.873 660 C 361.238 660, 361.995 657.039, 364.850 652.265 C 368.585 646.020, 381.593 623.958, 398.024 596 C 405.297 583.625, 416.310 564.950, 422.496 554.500 C 428.683 544.050, 438.584 527.175, 444.498 517 C 450.413 506.825, 458.747 492.650, 463.019 485.500 C 472.538 469.566, 489.682 440.468, 506.027 412.500 C 512.777 400.950, 527.525 375.750, 538.801 356.500 C 550.077 337.250, 563.847 313.739, 569.401 304.252 C 574.956 294.766, 579.950 287.007, 580.500 287.010 C 581.050 287.013, 584.627 292.749, 588.449 299.758 C 610.060 339.386, 624.303 364.505, 625.801 365.629 C 629.568 368.458, 632.829 368.287, 638.741 364.951 C 649.390 358.941, 742.484 296.239, 745.500 293.046 C 747.893 290.512, 748.484 289.022, 748.423 285.684 C 748.346 281.452, 744.503 274.467, 717.518 229.500 C 713.557 222.900, 706.348 210.750, 701.499 202.500 C 696.649 194.250, 689.230 181.650, 685.013 174.500 C 680.796 167.350, 672.469 153.175, 666.508 143 C 653.913 121.501, 650.531 115.767, 621.970 67.500 C 610.253 47.700, 597.109 25.425, 592.759 18 C 581.998 -0.371, 580.847 -1.467, 577.566 3.539 M 565.446 36.750 C 557.894 49.263, 547.432 66.700, 542.198 75.500 C 536.964 84.300, 526.303 102.075, 518.507 115 C 510.712 127.925, 490.903 161, 474.488 188.500 C 458.074 216, 440.290 245.700, 434.969 254.500 C 429.647 263.300, 422.913 274.550, 420.004 279.500 C 417.094 284.450, 413.029 291.200, 410.971 294.500 C 408.912 297.800, 404.857 304.550, 401.959 309.500 C 399.060 314.450, 392.871 324.800, 388.203 332.500 C 383.536 340.200, 377.238 350.775, 374.208 356 C 371.178 361.225, 366.579 368.875, 363.989 373 C 361.398 377.125, 355.997 386.125, 351.986 393 C 347.975 399.875, 342.224 409.550, 339.207 414.500 C 336.190 419.450, 330.565 428.900, 326.708 435.500 C 322.850 442.100, 317.360 451.325, 314.508 456 C 311.656 460.675, 303.332 474.625, 296.011 487 C 288.689 499.375, 277.445 518.275, 271.023 529 C 264.601 539.725, 253.334 558.625, 245.986 571 C 238.637 583.375, 227.383 602.275, 220.976 613 C 214.570 623.725, 203.330 642.625, 195.998 655 C 182.170 678.342, 165.110 706.989, 140.020 749 C 131.972 762.475, 120.060 782.500, 113.550 793.500 C 107.039 804.500, 96.104 822.950, 89.250 834.500 C 82.395 846.050, 72.384 862.925, 67.004 872 C 61.623 881.075, 47.271 905.206, 35.110 925.624 C 22.950 946.042, 13 963.412, 13 964.225 C 13 966.575, 24.096 966.987, 87.559 966.994 L 145.618 967 151.059 963.642 C 163.098 956.212, 193.124 937.365, 203 931.040 C 208.775 927.341, 217.100 922.143, 221.500 919.490 C 225.900 916.836, 234.900 911.202, 241.500 906.969 C 253.162 899.489, 265.616 891.663, 303.296 868.132 C 313.308 861.880, 326.225 853.709, 332 849.974 C 337.775 846.239, 347.225 840.292, 353 836.758 C 368.075 827.533, 386.866 815.797, 399 808.030 C 404.775 804.334, 417.375 796.347, 427 790.281 C 450.082 775.735, 489.582 750.886, 499 744.986 C 503.125 742.402, 519.523 732.123, 535.441 722.144 C 551.358 712.165, 565.161 704, 566.113 704 C 567.935 704, 568.745 705.911, 571.417 716.514 C 578.497 744.608, 596.032 782.973, 614.375 810.500 C 639.877 848.771, 669.442 879.761, 704.865 905.350 C 769.431 951.993, 845.100 973.789, 924 968.471 C 957.956 966.182, 967.856 964.433, 997.657 955.453 C 1010.881 951.468, 1033.829 942.041, 1047.500 934.978 C 1066.100 925.369, 1095.994 904.295, 1095.998 900.790 C 1095.999 899.850, 1090.109 888.825, 1082.908 876.290 C 1075.707 863.756, 1061.272 838.538, 1050.828 820.250 C 1040.385 801.963, 1031.354 787, 1030.759 787 C 1030.164 787, 1026.262 789.639, 1022.088 792.865 C 1005.099 805.995, 988.916 815.016, 969.722 822.058 C 924.679 838.582, 869.476 836.930, 821.601 817.625 C 806.271 811.443, 782.102 796.993, 770.500 787.071 C 746.786 766.793, 728.635 743.462, 716.505 717.668 C 695.606 673.227, 692.607 622.887, 708.059 575.863 C 715.115 554.391, 725.754 534.056, 739.335 516.087 C 759.370 489.580, 792.036 464.696, 822 453.114 C 826.675 451.307, 831.491 449.437, 832.702 448.958 C 836.965 447.272, 855.570 442.223, 861.500 441.143 C 888.974 436.141, 921.127 437.306, 945.500 444.187 C 954.993 446.867, 959.116 448.265, 968.500 451.988 C 979.866 456.497, 982.314 457.661, 993.191 463.734 C 1003.974 469.754, 1007.544 470.244, 1009.717 466 C 1010.421 464.625, 1012.750 459.675, 1014.893 455 C 1018.721 446.646, 1029.740 423.170, 1040.003 401.500 C 1042.868 395.450, 1046.569 387.575, 1048.226 384 C 1049.884 380.425, 1053.661 372.372, 1056.620 366.104 C 1059.579 359.836, 1062 353.969, 1062 353.067 C 1062 348.651, 1023.813 326.003, 1001.500 317.186 C 990.250 312.741, 976.101 308.102, 964.638 305.099 C 934.860 297.300, 890.055 295.139, 857 299.909 C 853.425 300.425, 847.030 301.353, 842.788 301.971 C 826.255 304.382, 796.002 312.984, 776.200 320.904 C 685.921 357.014, 623.951 421.288, 585.512 518.682 L 580.704 530.864 563.102 542.113 C 545.450 553.395, 533.136 561.202, 514.500 572.925 C 487.295 590.038, 451.430 612.669, 442.500 618.358 C 437 621.861, 423.275 630.559, 412 637.687 C 400.725 644.815, 382.950 656.063, 372.500 662.682 C 347.797 678.328, 347.203 678.631, 345.181 676.610 C 343.126 674.554, 343.803 673.142, 358.906 648 C 365.348 637.275, 375.131 620.850, 380.646 611.500 C 386.160 602.150, 395.317 586.625, 400.993 577 C 406.670 567.375, 416.115 551.400, 421.983 541.500 C 427.851 531.600, 438.193 514.050, 444.964 502.500 C 457.471 481.167, 468.237 462.942, 479.521 444 C 482.961 438.225, 488.904 428.100, 492.726 421.500 C 503.803 402.375, 523.261 369.170, 528.180 361 C 530.663 356.875, 538.687 343.150, 546.010 330.500 C 575.275 279.946, 579.697 272.732, 581.129 273.210 C 581.687 273.396, 583.938 276.912, 586.130 281.024 C 591.716 291.499, 607.874 321.030, 616.484 336.500 C 620.464 343.650, 625.020 351.862, 626.610 354.749 C 628.803 358.733, 630.057 359.998, 631.812 359.999 C 634.355 360, 648.028 351.268, 703.500 314.215 C 738.131 291.082, 740.520 289.298, 740.807 286.340 C 741.126 283.049, 739.561 280.061, 722.824 252 C 718.724 245.125, 710.725 231.625, 705.050 222 C 699.374 212.375, 691.260 198.650, 687.017 191.500 C 682.775 184.350, 676.022 172.875, 672.012 166 C 668.001 159.125, 661.016 147.200, 656.489 139.500 C 651.962 131.800, 642.966 116.500, 636.499 105.500 C 630.031 94.500, 618.879 75.600, 611.716 63.500 C 604.553 51.400, 595.049 35.338, 590.596 27.807 C 585.495 19.179, 581.885 14.093, 580.839 14.057 C 579.717 14.019, 574.718 21.388, 565.446 36.750" stroke="none" fill="#000000" fill-rule="evenodd"/><path d="M 579.241 14.250 C 578.163 15.593, 557.719 49.395, 542.195 75.500 C 536.962 84.300, 526.303 102.075, 518.507 115 C 510.712 127.925, 490.903 161, 474.488 188.500 C 458.074 216, 440.290 245.700, 434.969 254.500 C 429.647 263.300, 422.913 274.550, 420.004 279.500 C 417.094 284.450, 413.029 291.200, 410.971 294.500 C 408.912 297.800, 404.857 304.550, 401.959 309.500 C 399.060 314.450, 392.871 324.800, 388.203 332.500 C 383.536 340.200, 377.238 350.775, 374.208 356 C 371.178 361.225, 366.579 368.875, 363.989 373 C 361.398 377.125, 355.997 386.125, 351.986 393 C 347.975 399.875, 342.224 409.550, 339.207 414.500 C 336.190 419.450, 330.565 428.900, 326.708 435.500 C 322.850 442.100, 317.360 451.325, 314.508 456 C 311.656 460.675, 303.332 474.625, 296.011 487 C 288.689 499.375, 277.445 518.275, 271.023 529 C 264.601 539.725, 253.334 558.625, 245.986 571 C 238.637 583.375, 227.383 602.275, 220.976 613 C 214.570 623.725, 203.330 642.625, 195.998 655 C 182.170 678.342, 165.110 706.989, 140.020 749 C 131.972 762.475, 120.060 782.500, 113.550 793.500 C 107.039 804.500, 96.104 822.950, 89.250 834.500 C 82.395 846.050, 72.384 862.925, 67.004 872 C 61.623 881.075, 47.271 905.206, 35.110 925.624 C 22.950 946.042, 13 963.412, 13 964.225 C 13 966.575, 24.096 966.987, 87.559 966.994 L 145.618 967 151.059 963.642 C 163.098 956.212, 193.124 937.365, 203 931.040 C 208.775 927.341, 217.100 922.143, 221.500 919.490 C 225.900 916.836, 234.900 911.202, 241.500 906.969 C 253.162 899.489, 265.616 891.663, 303.296 868.132 C 313.308 861.880, 326.225 853.709, 332 849.974 C 337.775 846.239, 347.225 840.292, 353 836.758 C 368.075 827.533, 386.866 815.797, 399 808.030 C 404.775 804.334, 417.375 796.347, 427 790.281 C 450.082 775.735, 489.582 750.886, 499 744.986 C 503.125 742.402, 519.523 732.123, 535.441 722.144 C 551.358 712.165, 565.161 704, 566.113 704 C 567.935 704, 568.745 705.911, 571.417 716.514 C 578.497 744.608, 596.032 782.973, 614.375 810.500 C 639.877 848.771, 669.442 879.761, 704.865 905.350 C 769.431 951.993, 845.100 973.789, 924 968.471 C 957.956 966.182, 967.856 964.433, 997.657 955.453 C 1010.863 951.473, 1033.801 942.053, 1047.500 934.983 C 1062.894 927.038, 1093.751 905.906, 1096.157 901.660 C 1096.519 901.022, 1091.644 891.500, 1085.325 880.500 C 1079.006 869.500, 1064.384 843.962, 1052.832 823.750 C 1041.280 803.537, 1031.344 787, 1030.752 787 C 1030.161 787, 1026.262 789.639, 1022.088 792.865 C 1005.099 805.995, 988.916 815.016, 969.722 822.058 C 924.679 838.582, 869.476 836.930, 821.601 817.625 C 806.271 811.443, 782.102 796.993, 770.500 787.071 C 746.786 766.793, 728.635 743.462, 716.505 717.668 C 695.606 673.227, 692.607 622.887, 708.059 575.863 C 715.115 554.391, 725.754 534.056, 739.335 516.087 C 759.370 489.580, 792.036 464.696, 822 453.114 C 826.675 451.307, 831.491 449.437, 832.702 448.958 C 836.965 447.272, 855.570 442.223, 861.500 441.143 C 888.974 436.141, 921.127 437.306, 945.500 444.187 C 954.993 446.867, 959.116 448.265, 968.500 451.988 C 979.866 456.497, 982.314 457.661, 993.191 463.734 C 1003.974 469.754, 1007.544 470.244, 1009.717 466 C 1010.421 464.625, 1012.750 459.675, 1014.893 455 C 1018.721 446.646, 1029.740 423.170, 1040.003 401.500 C 1042.868 395.450, 1046.569 387.575, 1048.226 384 C 1049.884 380.425, 1053.661 372.372, 1056.620 366.104 C 1059.579 359.836, 1062 353.969, 1062 353.067 C 1062 348.651, 1023.813 326.003, 1001.500 317.186 C 990.250 312.741, 976.101 308.102, 964.638 305.099 C 934.860 297.300, 890.055 295.139, 857 299.909 C 853.425 300.425, 847.030 301.353, 842.788 301.971 C 826.255 304.382, 796.002 312.984, 776.200 320.904 C 685.911 357.018, 623.953 421.285, 585.501 518.709 L 580.683 530.917 568.591 538.658 C 550.194 550.437, 532.192 561.821, 498.500 582.984 C 489.150 588.857, 472.050 599.654, 460.500 606.976 C 448.950 614.298, 433.650 623.977, 426.500 628.485 C 419.350 632.992, 406.525 641.105, 398 646.512 C 347.317 678.661, 345.875 679.443, 344.399 675.597 C 343.691 673.752, 345.677 669.983, 359.245 647.419 C 369.847 629.788, 375.025 621.054, 401.292 576.500 C 406.804 567.150, 416.115 551.400, 421.983 541.500 C 427.851 531.600, 438.193 514.050, 444.964 502.500 C 457.471 481.167, 468.237 462.942, 479.521 444 C 482.961 438.225, 488.904 428.100, 492.726 421.500 C 503.803 402.375, 523.261 369.170, 528.180 361 C 530.663 356.875, 538.687 343.150, 546.010 330.500 C 557.358 310.896, 569.676 289.882, 577.222 277.250 C 580.049 272.517, 582.042 273.121, 585.482 279.752 C 588.998 286.532, 606.212 318.039, 616.485 336.500 C 620.464 343.650, 625.018 351.857, 626.606 354.737 C 628.193 357.618, 630.010 360.173, 630.643 360.416 C 631.276 360.659, 633.528 359.932, 635.647 358.799 C 643.943 354.365, 740.029 289.814, 740.981 288.035 C 741.538 286.996, 741.691 285.325, 741.323 284.322 C 740.548 282.216, 733.486 269.875, 722.824 252 C 718.724 245.125, 710.725 231.625, 705.050 222 C 699.374 212.375, 691.260 198.650, 687.017 191.500 C 682.775 184.350, 676.022 172.875, 672.012 166 C 668.001 159.125, 661.016 147.200, 656.489 139.500 C 651.962 131.800, 642.966 116.500, 636.499 105.500 C 598.464 40.812, 581.753 13, 580.917 13 C 580.547 13, 579.793 13.563, 579.241 14.250" stroke="none" fill="#f00000" fill-rule="evenodd"/></svg>